<svg width="200" height="200" viewBox="0 0 200 200" fill="none" xmlns="http://www.w3.org/2000/svg">
<path fill-rule="evenodd" clip-rule="evenodd" d="M194.412 32.562C201.863 25.1129 201.863 13.0358 194.412 5.58668C186.964 -1.86223 174.886 -1.86223 167.437 5.58668L100 73.025L32.5619 5.58668C25.1128 -1.86223 13.0358 -1.86223 5.58667 5.58668C-1.86222 13.0358 -1.86222 25.1129 5.58667 32.562L73.0252 99.9999L5.58667 167.437C-1.86222 174.888 -1.86222 186.964 5.58667 194.412C13.0358 201.863 25.1128 201.863 32.5619 194.412L100 126.975L167.437 194.412C174.886 201.863 186.964 201.863 194.412 194.412C201.863 186.964 201.863 174.888 194.412 167.437L126.975 99.9999L194.412 32.562Z" fill="black"/>
</svg>
